<svg width="867" height="440" xmlns="http://www.w3.org/2000/svg" xmlns:xlink="http://www.w3.org/1999/xlink" xml:space="preserve" overflow="hidden"><g transform="translate(-2937 -1787)"><g><path d="M2941 1987 3626.79 1987" stroke="#000000" stroke-width="10.3125" stroke-linecap="butt" stroke-linejoin="miter" stroke-miterlimit="8" stroke-opacity="1" fill="none" fill-rule="evenodd"/><path d="M3303.5 1916C3303.5 1906.89 3310.44 1899.5 3319 1899.5 3327.56 1899.5 3334.5 1906.89 3334.5 1916 3334.5 1925.11 3327.56 1932.5 3319 1932.5 3310.44 1932.5 3303.5 1925.11 3303.5 1916Z" stroke="#3D0406" stroke-width="4.58333" stroke-linecap="butt" stroke-linejoin="miter" stroke-miterlimit="8" stroke-opacity="1" fill="#802A29" fill-rule="evenodd" fill-opacity="1"/><path d="M3318.5 1932.5 3318.5 1987.5" stroke="#3D0406" stroke-width="4.58333" stroke-linecap="butt" stroke-linejoin="miter" stroke-miterlimit="8" stroke-opacity="1" fill="none" fill-rule="evenodd"/><path d="M3028.5 1911.5C3028.5 1898.8 3038.35 1888.5 3050.5 1888.5 3062.65 1888.5 3072.5 1898.8 3072.5 1911.5 3072.5 1924.2 3062.65 1934.5 3050.5 1934.5 3038.35 1934.5 3028.5 1924.2 3028.5 1911.5Z" stroke="#3D0406" stroke-width="4.58333" stroke-linecap="butt" stroke-linejoin="miter" stroke-miterlimit="8" stroke-opacity="1" fill="#802A29" fill-rule="evenodd" fill-opacity="1"/><path d="M3050.5 1934.5 3050.5 1989.5" stroke="#3D0406" stroke-width="4.58333" stroke-linecap="butt" stroke-linejoin="miter" stroke-miterlimit="8" stroke-opacity="1" fill="none" fill-rule="evenodd"/><path d="M3078.5 1911.5C3078.5 1898.8 3088.35 1888.5 3100.5 1888.5 3112.65 1888.5 3122.5 1898.8 3122.5 1911.5 3122.5 1924.2 3112.65 1934.5 3100.5 1934.5 3088.35 1934.5 3078.5 1924.2 3078.5 1911.5Z" stroke="#3D0406" stroke-width="4.58333" stroke-linecap="butt" stroke-linejoin="miter" stroke-miterlimit="8" stroke-opacity="1" fill="#802A29" fill-rule="evenodd" fill-opacity="1"/><path d="M3100.5 1934.5 3100.5 1989.5" stroke="#3D0406" stroke-width="4.58333" stroke-linecap="butt" stroke-linejoin="miter" stroke-miterlimit="8" stroke-opacity="1" fill="none" fill-rule="evenodd"/><rect x="3280.5" y="1959.5" width="317" height="52.0002" stroke="#2A3862" stroke-width="6.875" stroke-linecap="butt" stroke-linejoin="miter" stroke-miterlimit="8" stroke-opacity="1" fill="#CFD6E8" fill-opacity="1"/><path d="M2.29167 0 2.29167 99.1148 0 96.8231 95.1038 96.8231 95.1038 101.406-2.29167 101.406-2.29167 0ZM90.5205 85.3648 118.02 99.1148 90.5205 112.865Z" fill="#2A3862" fill-rule="nonzero" fill-opacity="1" transform="matrix(1 -1.22465e-16 -1.22465e-16 -1 3280.5 1985.61)"/><path d="M3303.5 2019.5 3303.5 2050.13" stroke="#2A3862" stroke-width="6.875" stroke-linecap="butt" stroke-linejoin="miter" stroke-miterlimit="8" stroke-opacity="1" fill="none" fill-rule="evenodd"/><path d="M2983.5 2019.5 2983.5 2050.13" stroke="#2A3862" stroke-width="6.875" stroke-linecap="butt" stroke-linejoin="miter" stroke-miterlimit="8" stroke-opacity="1" fill="none" fill-rule="evenodd"/><path d="M2979.5 2049.5 3308.56 2049.5" stroke="#2A3862" stroke-width="6.875" stroke-linecap="butt" stroke-linejoin="miter" stroke-miterlimit="8" stroke-opacity="1" fill="none" fill-rule="evenodd"/><path d="M3593.5 2061.5 3593.5 2078.69" stroke="#2A3862" stroke-width="6.875" stroke-linecap="butt" stroke-linejoin="miter" stroke-miterlimit="8" stroke-opacity="1" fill="none" fill-rule="evenodd"/><path d="M3283.5 2061.5 3283.5 2078.69" stroke="#2A3862" stroke-width="6.875" stroke-linecap="butt" stroke-linejoin="miter" stroke-miterlimit="8" stroke-opacity="1" fill="none" fill-rule="evenodd"/><path d="M3280.5 2079.5 3597.9 2079.5" stroke="#2A3862" stroke-width="6.875" stroke-linecap="butt" stroke-linejoin="miter" stroke-miterlimit="8" stroke-opacity="1" fill="none" fill-rule="evenodd"/><path d="M3089.5 1979.17C3089.5 1974.38 3093.38 1970.5 3098.17 1970.5L3281.83 1970.5C3286.62 1970.5 3290.5 1974.38 3290.5 1979.17L3290.5 2013.83C3290.5 2018.62 3286.62 2022.5 3281.83 2022.5L3098.17 2022.5C3093.38 2022.5 3089.5 2018.62 3089.5 2013.83Z" stroke="#FFC000" stroke-width="4.58333" stroke-linecap="butt" stroke-linejoin="miter" stroke-miterlimit="8" stroke-opacity="1" fill="none" fill-rule="evenodd"/><path d="M3228 1958 3228 1901.87C3228 1869.98 3253.86 1844.12 3285.75 1844.12L3285.75 1829 3327 1846.87 3285.75 1864.75 3285.75 1849.62C3256.89 1849.62 3233.5 1873.02 3233.5 1901.87L3233.5 1958Z" fill="#4472C4" fill-rule="evenodd" fill-opacity="1"/><text fill="#000000" fill-opacity="1" font-family="Arial,Arial_MSFontService,sans-serif" font-style="normal" font-variant="normal" font-weight="400" font-stretch="normal" font-size="50" text-anchor="start" direction="ltr" writing-mode="lr-tb" unicode-bidi="normal" text-decoration="none" transform="matrix(1 0 0 1 3338.42 1856)">TF</text><text fill="#000000" fill-opacity="1" font-family="Arial,Arial_MSFontService,sans-serif" font-style="normal" font-variant="normal" font-weight="400" font-stretch="normal" font-size="50" text-anchor="start" direction="ltr" writing-mode="lr-tb" unicode-bidi="normal" text-decoration="none" transform="matrix(1 0 0 1 3414.04 1856)">Binding</text><text fill="#000000" fill-opacity="1" font-family="Arial,Arial_MSFontService,sans-serif" font-style="normal" font-variant="normal" font-weight="400" font-stretch="normal" font-size="50" text-anchor="start" direction="ltr" writing-mode="lr-tb" unicode-bidi="normal" text-decoration="none" transform="matrix(1 0 0 1 3596.8 1856)">Region</text><text fill="#000000" fill-opacity="1" font-family="Arial,Arial_MSFontService,sans-serif" font-style="normal" font-variant="normal" font-weight="400" font-stretch="normal" font-size="55" text-anchor="start" direction="ltr" writing-mode="lr-tb" unicode-bidi="normal" text-decoration="none" transform="matrix(1 0 0 1 3000.63 2111)">Regulation</text><text fill="#000000" fill-opacity="1" font-family="Arial,Arial_MSFontService,sans-serif" font-style="normal" font-variant="normal" font-weight="400" font-stretch="normal" font-size="55" text-anchor="start" direction="ltr" writing-mode="lr-tb" unicode-bidi="normal" text-decoration="none" transform="matrix(1 0 0 1 3000.63 2177)">region</text><text fill="#000000" fill-opacity="1" font-family="Arial,Arial_MSFontService,sans-serif" font-style="normal" font-variant="normal" font-weight="400" font-stretch="normal" font-size="50" text-anchor="start" direction="ltr" writing-mode="lr-tb" unicode-bidi="normal" text-decoration="none" transform="matrix(1 0 0 1 3302.43 2141)">Target</text><text fill="#000000" fill-opacity="1" font-family="Arial,Arial_MSFontService,sans-serif" font-style="normal" font-variant="normal" font-weight="400" font-stretch="normal" font-size="50" text-anchor="start" direction="ltr" writing-mode="lr-tb" unicode-bidi="normal" text-decoration="none" transform="matrix(1 0 0 1 3461.71 2141)">Gene</text></g></g></svg>