<svg width="715" height="367" xmlns="http://www.w3.org/2000/svg" xmlns:xlink="http://www.w3.org/1999/xlink" xml:space="preserve" overflow="hidden"><g transform="translate(-2956 -1269)"><g><text fill="#000000" fill-opacity="1" font-family="Arial,Arial_MSFontService,sans-serif" font-style="normal" font-variant="normal" font-weight="400" font-stretch="normal" font-size="55" text-anchor="start" direction="ltr" writing-mode="lr-tb" unicode-bidi="normal" text-decoration="none" transform="matrix(1 0 0 1 3019.9 1522)">Regulation</text><text fill="#000000" fill-opacity="1" font-family="Arial,Arial_MSFontService,sans-serif" font-style="normal" font-variant="normal" font-weight="400" font-stretch="normal" font-size="55" text-anchor="start" direction="ltr" writing-mode="lr-tb" unicode-bidi="normal" text-decoration="none" transform="matrix(1 0 0 1 3019.9 1588)">region</text><path d="M2960 1400 3645.79 1400" stroke="#000000" stroke-width="10.3125" stroke-linecap="butt" stroke-linejoin="miter" stroke-miterlimit="8" stroke-opacity="1" fill="none" fill-rule="evenodd"/><path d="M3322.5 1329C3322.5 1319.89 3329.44 1312.5 3338 1312.5 3346.56 1312.5 3353.5 1319.89 3353.5 1329 3353.5 1338.11 3346.56 1345.5 3338 1345.5 3329.44 1345.5 3322.5 1338.11 3322.5 1329Z" stroke="#3D0406" stroke-width="4.58333" stroke-linecap="butt" stroke-linejoin="miter" stroke-miterlimit="8" stroke-opacity="1" fill="#802A29" fill-rule="evenodd" fill-opacity="1"/><path d="M3337.5 1345.5 3337.5 1400.5" stroke="#3D0406" stroke-width="4.58333" stroke-linecap="butt" stroke-linejoin="miter" stroke-miterlimit="8" stroke-opacity="1" fill="none" fill-rule="evenodd"/><path d="M3047.5 1324.5C3047.5 1311.8 3057.35 1301.5 3069.5 1301.5 3081.65 1301.5 3091.5 1311.8 3091.5 1324.5 3091.5 1337.2 3081.65 1347.5 3069.5 1347.5 3057.35 1347.5 3047.5 1337.2 3047.5 1324.5Z" stroke="#3D0406" stroke-width="4.58333" stroke-linecap="butt" stroke-linejoin="miter" stroke-miterlimit="8" stroke-opacity="1" fill="#802A29" fill-rule="evenodd" fill-opacity="1"/><path d="M3069.5 1347.5 3069.5 1402.5" stroke="#3D0406" stroke-width="4.58333" stroke-linecap="butt" stroke-linejoin="miter" stroke-miterlimit="8" stroke-opacity="1" fill="none" fill-rule="evenodd"/><path d="M3097.5 1324.5C3097.5 1311.8 3107.35 1301.5 3119.5 1301.5 3131.65 1301.5 3141.5 1311.8 3141.5 1324.5 3141.5 1337.2 3131.65 1347.5 3119.5 1347.5 3107.35 1347.5 3097.5 1337.2 3097.5 1324.5Z" stroke="#3D0406" stroke-width="4.58333" stroke-linecap="butt" stroke-linejoin="miter" stroke-miterlimit="8" stroke-opacity="1" fill="#802A29" fill-rule="evenodd" fill-opacity="1"/><path d="M3119.5 1347.5 3119.5 1402.5" stroke="#3D0406" stroke-width="4.58333" stroke-linecap="butt" stroke-linejoin="miter" stroke-miterlimit="8" stroke-opacity="1" fill="none" fill-rule="evenodd"/><rect x="3298.5" y="1372.5" width="318" height="51.9999" stroke="#2A3862" stroke-width="6.875" stroke-linecap="butt" stroke-linejoin="miter" stroke-miterlimit="8" stroke-opacity="1" fill="#CFD6E8" fill-opacity="1"/><path d="M2.29167 0 2.29167 99.1148 0 96.8231 95.1038 96.8231 95.1038 101.406-2.29167 101.406-2.29167 0ZM90.5205 85.3648 118.02 99.1148 90.5205 112.865Z" fill="#2A3862" fill-rule="nonzero" fill-opacity="1" transform="matrix(1 -1.22465e-16 -1.22465e-16 -1 3298.5 1398.61)"/><path d="M3322.5 1432.5 3322.5 1463.13" stroke="#2A3862" stroke-width="6.875" stroke-linecap="butt" stroke-linejoin="miter" stroke-miterlimit="8" stroke-opacity="1" fill="none" fill-rule="evenodd"/><path d="M3002.5 1432.5 3002.5 1463.13" stroke="#2A3862" stroke-width="6.875" stroke-linecap="butt" stroke-linejoin="miter" stroke-miterlimit="8" stroke-opacity="1" fill="none" fill-rule="evenodd"/><path d="M2997.5 1462.5 3326.56 1462.5" stroke="#2A3862" stroke-width="6.875" stroke-linecap="butt" stroke-linejoin="miter" stroke-miterlimit="8" stroke-opacity="1" fill="none" fill-rule="evenodd"/><path d="M3612.5 1474.5 3612.5 1491.69" stroke="#2A3862" stroke-width="6.875" stroke-linecap="butt" stroke-linejoin="miter" stroke-miterlimit="8" stroke-opacity="1" fill="none" fill-rule="evenodd"/><path d="M3302.5 1474.5 3302.5 1491.69" stroke="#2A3862" stroke-width="6.875" stroke-linecap="butt" stroke-linejoin="miter" stroke-miterlimit="8" stroke-opacity="1" fill="none" fill-rule="evenodd"/><path d="M3298.5 1492.5 3615.9 1492.5" stroke="#2A3862" stroke-width="6.875" stroke-linecap="butt" stroke-linejoin="miter" stroke-miterlimit="8" stroke-opacity="1" fill="none" fill-rule="evenodd"/><text fill="#000000" fill-opacity="1" font-family="Arial,Arial_MSFontService,sans-serif" font-style="normal" font-variant="normal" font-weight="400" font-stretch="normal" font-size="50" text-anchor="start" direction="ltr" writing-mode="lr-tb" unicode-bidi="normal" text-decoration="none" transform="matrix(1 0 0 1 3321.7 1552)">Target</text><text fill="#000000" fill-opacity="1" font-family="Arial,Arial_MSFontService,sans-serif" font-style="normal" font-variant="normal" font-weight="400" font-stretch="normal" font-size="50" text-anchor="start" direction="ltr" writing-mode="lr-tb" unicode-bidi="normal" text-decoration="none" transform="matrix(1 0 0 1 3480.97 1552)">Gene</text></g></g></svg>