<svg width="760" height="248" xmlns="http://www.w3.org/2000/svg" xmlns:xlink="http://www.w3.org/1999/xlink" xml:space="preserve" overflow="hidden"><g transform="translate(-1650 -563)"><g><path d="M2092.5 622C2092.5 606.26 2104.59 593.5 2119.5 593.5 2134.41 593.5 2146.5 606.26 2146.5 622 2146.5 637.74 2134.41 650.5 2119.5 650.5 2104.59 650.5 2092.5 637.74 2092.5 622Z" stroke="#000000" stroke-width="4.58333" stroke-linecap="butt" stroke-linejoin="miter" stroke-miterlimit="8" stroke-opacity="1" fill="#802A2A" fill-rule="evenodd" fill-opacity="1"/><path d="M2119 650 2119 686.667" stroke="#000000" stroke-width="2.29167" stroke-linecap="butt" stroke-linejoin="miter" stroke-miterlimit="8" stroke-opacity="1" fill="none" fill-rule="evenodd"/><path d="M1731.5 689.5 2320.08 689.5" stroke="#000000" stroke-width="6.875" stroke-linecap="butt" stroke-linejoin="miter" stroke-miterlimit="8" stroke-opacity="1" fill="none" fill-rule="evenodd"/><rect x="1784" y="663" width="194" height="52.9999" stroke="#000000" stroke-width="2.29167" stroke-linecap="butt" stroke-linejoin="miter" stroke-miterlimit="8" stroke-opacity="1" fill="#D0D5E9" fill-opacity="1"/><rect x="2011.5" y="663.5" width="134" height="52.9999" stroke="#000000" stroke-width="4.58333" stroke-linecap="butt" stroke-linejoin="miter" stroke-miterlimit="8" stroke-opacity="1" fill="#8497B0" fill-opacity="1"/><rect x="2159" y="663" width="91.9998" height="52.9999" stroke="#000000" stroke-width="2.29167" stroke-linecap="butt" stroke-linejoin="miter" stroke-miterlimit="8" stroke-opacity="1" fill="#D0D5E9" fill-opacity="1"/><text fill="#000000" fill-opacity="1" font-family="Arial,Arial_MSFontService,sans-serif" font-style="normal" font-variant="normal" font-weight="400" font-stretch="normal" font-size="55" text-anchor="start" direction="ltr" writing-mode="lr-tb" unicode-bidi="normal" text-decoration="none" transform="matrix(1 0 0 1 1685.23 708)">5‘</text><text fill="#000000" fill-opacity="1" font-family="Arial,Arial_MSFontService,sans-serif" font-style="normal" font-variant="normal" font-weight="400" font-stretch="normal" font-size="55" text-anchor="start" direction="ltr" writing-mode="lr-tb" unicode-bidi="normal" text-decoration="none" transform="matrix(1 0 0 1 2333.89 708)">3‘</text><path d="M1741.5 624C1741.5 608.26 1753.36 595.5 1768 595.5 1782.64 595.5 1794.5 608.26 1794.5 624 1794.5 639.74 1782.64 652.5 1768 652.5 1753.36 652.5 1741.5 639.74 1741.5 624Z" stroke="#000000" stroke-width="4.58333" stroke-linecap="butt" stroke-linejoin="miter" stroke-miterlimit="8" stroke-opacity="1" fill="#802A2A" fill-rule="evenodd" fill-opacity="1"/><path d="M1767 652 1767 688.667" stroke="#000000" stroke-width="2.29167" stroke-linecap="butt" stroke-linejoin="miter" stroke-miterlimit="8" stroke-opacity="1" fill="none" fill-rule="evenodd"/><path d="M1968.5 624.5C1968.5 609.036 1980.59 596.5 1995.5 596.5 2010.41 596.5 2022.5 609.036 2022.5 624.5 2022.5 639.964 2010.41 652.5 1995.5 652.5 1980.59 652.5 1968.5 639.964 1968.5 624.5Z" stroke="#000000" stroke-width="4.58333" stroke-linecap="butt" stroke-linejoin="miter" stroke-miterlimit="8" stroke-opacity="1" fill="#802A2A" fill-rule="evenodd" fill-opacity="1"/><path d="M1995 652 1995 688.667" stroke="#000000" stroke-width="2.29167" stroke-linecap="butt" stroke-linejoin="miter" stroke-miterlimit="8" stroke-opacity="1" fill="none" fill-rule="evenodd"/><g><g><g><path d="M37.489 7.81249C21.1022 7.81249 7.81796 21.0967 7.81796 37.4836 7.81796 53.8704 21.1022 67.1546 37.489 67.1546 53.8759 67.1546 67.1601 53.8704 67.1601 37.4836 67.1601 37.4825 67.1601 37.4815 67.1601 37.4804 67.1657 21.1009 53.892 7.81812 37.5125 7.81249 37.5047 7.81249 37.4968 7.81249 37.489 7.81249ZM40.7437 50.0781 36.2304 50.0781 36.2304 28.5226C35.8492 28.783 35.4468 29.0338 35.0234 29.275 34.6002 29.5169 34.1629 29.7334 33.714 29.9234 33.2286 30.114 32.7185 30.2914 32.1836 30.4554 31.6486 30.6195 31.0607 30.7794 30.4195 30.9351L30.4195 27.3297C30.8518 27.2083 31.2451 27.0872 31.5992 26.9664 31.9533 26.8455 32.3039 26.7244 32.6508 26.6031 32.9953 26.4648 33.3422 26.3226 33.6883 26.175 34.0343 26.0273 34.3797 25.8859 34.7258 25.7469 35.0539 25.574 35.3865 25.401 35.7234 25.2281 36.0604 25.0552 36.3937 24.8729 36.7234 24.6812 37.088 24.4916 37.4466 24.2833 37.7992 24.0562 38.1518 23.8291 38.5109 23.6208 38.8765 23.4312L40.7437 23.4312Z" fill="#000000" fill-rule="nonzero" fill-opacity="1" transform="matrix(1 0 0 1.01333 2186 725)"/></g></g></g><g><g><g><path d="M41.4878 8.64582C23.353 8.64582 8.65187 23.347 8.65187 41.4818 8.65187 59.6165 23.353 74.3177 41.4878 74.3177 59.6226 74.3177 74.3238 59.6165 74.3238 41.4818 74.3238 41.4809 74.3238 41.48 74.3238 41.4792 74.33 23.352 59.6401 8.65204 41.5129 8.64582 41.5045 8.64582 41.4962 8.64582 41.4878 8.64582ZM50.8754 56.2056 32.1011 56.2056 32.1011 53.4502C32.0839 52.2953 32.2985 51.1487 32.7322 50.0783 33.1572 49.0681 33.7435 48.1337 34.4683 47.3116 35.2396 46.4387 36.1012 45.6498 37.0387 44.9582 38.015 44.2314 39.0676 43.5233 40.1961 42.834 41.1412 42.268 42.0377 41.6246 42.8763 40.9103 43.5069 40.3722 44.0672 39.757 44.5441 39.0791 44.9366 38.5182 45.224 37.8907 45.3923 37.2272 45.55 36.5496 45.6269 35.8557 45.6214 35.1599 45.6224 34.5553 45.5255 33.9544 45.3343 33.3806 45.1543 32.8272 44.8663 32.315 44.487 31.8737 44.0918 31.4253 43.6015 31.0708 43.0518 30.8362 42.4121 30.5669 41.7228 30.4348 41.0287 30.4488 39.6731 30.4437 38.3353 30.7586 37.1243 31.3679 35.8507 32.0142 34.6803 32.846 33.6512 33.8363L33.6512 29.3577C34.6456 28.4315 35.8381 27.7443 37.1381 27.3484 38.5409 26.9325 39.998 26.7285 41.461 26.7432 42.6292 26.7351 43.7915 26.9102 44.9055 27.262 45.9306 27.5809 46.8854 28.0924 47.7189 28.769 48.5292 29.4377 49.1772 30.2817 49.614 31.2373 50.0895 32.2968 50.3257 33.4481 50.3057 34.6092 50.3158 35.6534 50.1947 36.6947 49.9452 37.7087 49.7006 38.6607 49.3011 39.5659 48.7624 40.3881 48.162 41.2932 47.4431 42.114 46.6252 42.8288 45.6183 43.7069 44.5431 44.5033 43.4098 45.2107 42.3757 45.862 41.4569 46.465 40.6535 47.0194 39.9257 47.5134 39.239 48.0654 38.6001 48.6699 38.0805 49.1569 37.6488 49.7299 37.324 50.3636 37.0318 50.9676 36.8839 51.6311 36.8917 52.302L50.872 52.302Z" fill="#000000" fill-rule="nonzero" fill-opacity="1" transform="matrix(1 0 0 1 1661 567)"/></g></g></g><rect x="1959.5" y="585.5" width="192" height="136" stroke="#C46463" stroke-width="4.58333" stroke-linecap="butt" stroke-linejoin="miter" stroke-miterlimit="8" stroke-opacity="1" fill="none"/><g><g><g><path d="M2002.99 735.75C1984.63 735.75 1969.76 750.628 1969.75 768.982 1969.75 787.335 1984.63 802.214 2002.99 802.215 2021.34 802.215 2036.22 787.337 2036.22 768.983 2036.22 768.982 2036.22 768.981 2036.22 768.98 2036.23 750.634 2021.36 735.757 2003.01 735.75 2003.01 735.75 2003 735.75 2002.99 735.75ZM2011.78 779.09C2011.17 780.177 2010.32 781.11 2009.29 781.821 2008.19 782.586 2006.95 783.152 2005.65 783.492 2004.22 783.875 2002.75 784.066 2001.27 784.059 1999.78 784.064 1998.3 783.932 1996.83 783.666 1995.6 783.468 1994.41 783.071 1993.31 782.49L1993.31 778.012C1994.48 778.828 1995.79 779.428 1997.16 779.785 1998.55 780.165 1999.98 780.36 2001.42 780.366 2002.11 780.361 2002.8 780.293 2003.48 780.162 2004.2 780.033 2004.9 779.783 2005.53 779.422 2006.16 779.062 2006.7 778.56 2007.1 777.955 2007.54 777.251 2007.76 776.431 2007.72 775.602 2007.75 774.754 2007.54 773.915 2007.13 773.175 2006.73 772.501 2006.16 771.941 2005.47 771.549 2004.7 771.107 2003.85 770.798 2002.98 770.634 2001.95 770.433 2000.9 770.336 1999.85 770.343L1997.15 770.343 1997.15 766.624 1999.71 766.624C2000.64 766.631 2001.57 766.543 2002.48 766.362 2003.26 766.215 2004 765.925 2004.66 765.505 2005.26 765.124 2005.75 764.599 2006.09 763.979 2006.44 763.279 2006.62 762.5 2006.59 761.714 2006.62 761 2006.46 760.292 2006.12 759.666 2005.82 759.154 2005.4 758.725 2004.89 758.416 2004.39 758.115 2003.85 757.903 2003.28 757.791 2002.72 757.677 2002.16 757.619 2001.59 757.616 2000.37 757.628 1999.16 757.804 1997.99 758.141 1996.77 758.473 1995.61 759.002 1994.56 759.709L1994.56 755.587C1995.65 755.011 1996.81 754.585 1998.01 754.323 1999.32 754.036 2000.66 753.895 2002.01 753.902 2003.21 753.9 2004.4 754.041 2005.57 754.323 2006.65 754.577 2007.69 755.014 2008.63 755.616 2009.5 756.178 2010.23 756.933 2010.76 757.824 2011.32 758.786 2011.59 759.882 2011.56 760.99 2011.63 762.733 2011.04 764.437 2009.89 765.755 2008.67 767.057 2007.07 767.941 2005.32 768.282 2006.27 768.381 2007.2 768.616 2008.08 768.982 2008.94 769.336 2009.74 769.832 2010.45 770.45 2011.13 771.053 2011.68 771.783 2012.09 772.6 2012.5 773.445 2012.71 774.376 2012.7 775.317 2012.73 776.633 2012.41 777.934 2011.78 779.09Z" fill="#000000" fill-rule="nonzero" fill-opacity="1"/></g></g></g></g></g></svg>